<?xml version="1.0" encoding="utf-8"?>
<!-- Generator: Adobe Illustrator 16.0.4, SVG Export Plug-In . SVG Version: 6.00 Build 0)  -->
<!DOCTYPE svg PUBLIC "-//W3C//DTD SVG 1.1//EN" "http://www.w3.org/Graphics/SVG/1.1/DTD/svg11.dtd">
<svg version="1.1" id="Layer_1" xmlns="http://www.w3.org/2000/svg" xmlns:xlink="http://www.w3.org/1999/xlink" x="0px" y="0px"
	 width="287.5px" height="329.5px" viewBox="0 0 287.5 329.5" style="enable-background:new 0 0 287.5 329.5;" xml:space="preserve"
	>
<polygon style="fill:none;stroke:#FFFFFF;stroke-width:10;stroke-miterlimit:10;" points="279.032,242.854 144.017,320.807 
	9,242.855 9,86.952 144.017,9 279.032,86.951 "/>
<path style="fill:#FFFFFF;" d="M241.184,161.083l-5.436,7.41v-7.41h-11.675l-25.633,34.7v-1.271v-5.484v-18.313v-9.632h-10.377
	h-1.482h-6.177v9.632h6.177h1.482v18.313v5.484h-3.829h-10.192c-1.318,0-2.378-0.271-3.182-0.768
	c-0.802-0.491-1.41-1.149-1.821-1.918c-0.413-0.768-0.679-1.646-0.804-2.633c-0.123-0.987-0.185-1.957-0.185-2.909v-25.202h-9.463
	h-2.396h-2.965h-11.304l0.186,9.577l0.309,17.271l-0.123,0.064l-17.913-26.913h-10.13v12.52c-1.211-2.418-2.813-4.544-4.817-6.347
	c-2.142-1.933-4.644-3.446-7.505-4.542c-2.863-1.093-5.92-1.631-9.173-1.631c-3.871,0-7.402,0.698-10.593,2.124
	c-3.192,1.422-5.94,3.543-8.246,6.361c-1.277,1.469-2.245,3.002-2.903,4.599c-1.194,2.794-1.791,5.756-1.791,8.827
	c0,3.02,0.627,5.796,1.884,8.394c0.539,1.106,1.165,2.146,1.867,3.125H59.099h-4.324l14.824-24.524v-8.905H50.697H40.32v8.612v1.02
	v3.395h10.377v-3.395h5.621L40.32,196.927v7.22h18.778h33.474l-0.003-0.003c0.042,0,0.083,0.002,0.125,0.002
	c3.252,0,6.32-0.536,9.203-1.624c2.882-1.098,5.395-2.633,7.536-4.551c2.004-1.8,3.606-3.937,4.817-6.346v12.393h11.304
	l-0.309-26.069l0.123-0.109l17.604,26.179h10.254V170.66l2.965-0.035v15.66c0,1.374,0.04,2.633,0.123,3.835
	c0.082,1.159,0.278,2.256,0.587,3.353c0.309,1.047,0.762,2.085,1.358,3.072c0.597,0.985,1.431,1.975,2.502,3.015
	c1.729,1.676,3.769,2.852,6.115,3.567c2.347,0.658,4.715,1.02,7.104,1.02h0.185h10.069h3.829h4.199h6.178h7.968l17.356-26.8h0.186
	v17.166h5.864l11.06-17.166h0.247v26.8h11.798v-43.063H241.184z M104.06,187.163c-0.577,1.483-1.39,2.8-2.439,3.904
	c-1.051,1.142-2.316,2.027-3.799,2.727c-1.483,0.666-3.109,0.995-4.88,0.995c-1.854,0-3.542-0.329-5.065-0.995
	c-1.523-0.699-2.82-1.585-3.891-2.682c-1.072-1.097-1.895-2.413-2.472-3.893c-0.577-1.502-0.864-3.081-0.864-4.773
	c0-1.646,0.287-3.185,0.864-4.661c0.577-1.438,1.39-2.741,2.44-3.839c1.05-1.101,2.326-1.979,3.83-2.64
	c1.503-0.651,3.159-0.98,4.972-0.98c1.812,0,3.469,0.334,4.973,0.992c1.503,0.689,2.789,1.588,3.86,2.737
	c1.07,1.15,1.894,2.467,2.471,3.95c0.576,1.478,0.864,3.014,0.864,4.607C104.924,184.201,104.636,185.686,104.06,187.163z"/>
<polygon style="fill:#FFFFFF;" points="114.579,206.8 120.438,206.8 120.438,207.179 115.007,207.179 115.007,211.559 
	117.843,211.559 117.843,211.902 115.007,211.902 115.007,216.372 120.438,216.372 120.438,216.729 114.579,216.729 "/>
<path style="fill:#FFFFFF;" d="M126.688,211.486c0.086,0.03,0.209,0.03,0.371,0.087c0.161,0.043,0.337,0.091,0.527,0.163
	c0.19,0.057,0.383,0.166,0.577,0.276c0.194,0.116,0.373,0.272,0.535,0.484c0.161,0.174,0.294,0.393,0.398,0.665
	c0.104,0.22,0.157,0.549,0.157,0.878c0,0.432-0.083,0.768-0.25,1.097c-0.166,0.329-0.39,0.605-0.67,0.851
	c-0.28,0.247-0.601,0.413-0.962,0.554c-0.361,0.132-0.732,0.188-1.112,0.188h-0.028h-2.751V216.4h2.751
	c0.323,0,0.644-0.057,0.963-0.166c0.318-0.11,0.599-0.272,0.84-0.44c0.243-0.218,0.44-0.438,0.593-0.722
	c0.151-0.288,0.229-0.594,0.229-0.938c0-0.448-0.091-0.805-0.272-1.083c-0.18-0.32-0.405-0.547-0.676-0.709
	c-0.271-0.167-0.562-0.294-0.87-0.387c-0.31-0.109-0.587-0.162-0.834-0.219c-0.228-0.053-0.499-0.13-0.812-0.22
	c-0.313-0.109-0.61-0.22-0.892-0.391c-0.28-0.193-0.518-0.43-0.713-0.706c-0.194-0.272-0.297-0.658-0.306-1.099v-0.052
	c0-0.386,0.076-0.743,0.228-1.044c0.152-0.325,0.356-0.549,0.613-0.768c0.257-0.22,0.552-0.382,0.884-0.492
	c0.333-0.109,0.685-0.166,1.055-0.166h2.994v0.386h-2.994c-0.323,0-0.627,0.05-0.912,0.113c-0.285,0.106-0.532,0.269-0.741,0.436
	c-0.209,0.162-0.375,0.382-0.499,0.658c-0.123,0.271-0.186,0.548-0.186,0.832c0,0.374,0.076,0.703,0.229,0.963
	c0.152,0.232,0.356,0.451,0.613,0.618c0.257,0.163,0.551,0.272,0.884,0.382C125.979,211.297,126.327,211.407,126.688,211.486"/>
<path style="fill:#FFFFFF;" d="M137.651,207.624c-0.685,0-1.326,0.112-1.925,0.382c-0.599,0.22-1.122,0.549-1.568,0.941
	c-0.446,0.433-0.798,0.924-1.055,1.473c-0.257,0.581-0.385,1.207-0.385,1.865s0.128,1.263,0.385,1.812
	c0.257,0.601,0.608,1.083,1.055,1.479c0.446,0.423,0.97,0.728,1.568,0.987c0.599,0.22,1.24,0.329,1.925,0.329h2.152v0.334h-2.152
	c-0.742,0-1.438-0.115-2.089-0.338c-0.651-0.269-1.219-0.598-1.703-1.037c-0.485-0.462-0.868-0.986-1.148-1.592
	c-0.28-0.602-0.42-1.26-0.42-1.975c0-0.723,0.14-1.404,0.42-2.014s0.663-1.111,1.148-1.55c0.484-0.439,1.052-0.801,1.703-1.045
	c0.65-0.253,1.347-0.382,2.089-0.382h2.152v0.329H137.651z"/>
<polygon style="fill:#FFFFFF;" points="143.084,207.348 148.942,207.348 148.942,207.677 143.511,207.677 143.511,212.065 
	146.348,212.065 146.348,212.451 143.511,212.451 143.511,216.893 148.942,216.893 148.942,217.222 143.084,217.222 "/>
<polygon style="fill:#FFFFFF;" points="153.234,207.734 153.191,207.734 153.191,217.227 152.764,217.227 152.764,207.295 
	153.42,207.295 160.747,216.729 160.79,216.729 160.79,207.295 161.218,207.295 161.218,217.227 160.661,217.227 "/>
<path style="fill:#FFFFFF;" d="M170.065,217.227c-0.741,0-1.437-0.115-2.088-0.337c-0.651-0.27-1.219-0.599-1.703-1.038
	c-0.485-0.438-0.868-0.986-1.148-1.592c-0.279-0.602-0.42-1.26-0.42-1.975c0-0.722,0.141-1.403,0.42-2.014
	c0.28-0.609,0.663-1.111,1.148-1.55c0.484-0.439,1.052-0.769,1.703-1.045c0.651-0.219,1.347-0.366,2.088-0.366
	c0.742,0,1.438,0.147,2.089,0.366c0.65,0.276,1.219,0.605,1.703,1.045c0.485,0.438,0.868,0.94,1.148,1.55
	c0.279,0.61,0.42,1.292,0.42,2.014c0,0.715-0.141,1.373-0.42,1.975c-0.28,0.605-0.663,1.153-1.148,1.592
	c-0.484,0.439-1.053,0.769-1.703,1.038C171.503,217.111,170.808,217.227,170.065,217.227 M170.065,207.648
	c-0.684,0-1.325,0.137-1.924,0.357c-0.599,0.22-1.122,0.549-1.568,0.967c-0.446,0.407-0.801,0.898-1.062,1.447
	c-0.262,0.582-0.393,1.207-0.393,1.865s0.131,1.263,0.393,1.813c0.261,0.6,0.615,1.083,1.062,1.478
	c0.446,0.423,0.97,0.72,1.568,0.977c0.599,0.229,1.24,0.34,1.924,0.34c0.685,0,1.326-0.11,1.925-0.34
	c0.599-0.257,1.121-0.554,1.568-0.977c0.446-0.395,0.8-0.878,1.062-1.478c0.262-0.551,0.393-1.155,0.393-1.813
	s-0.131-1.283-0.393-1.865c-0.262-0.549-0.615-1.04-1.062-1.447c-0.447-0.418-0.97-0.747-1.568-0.967
	C171.392,207.785,170.75,207.648,170.065,207.648"/>
<path style="fill:#FFFFFF;" d="M189.48,212.504l-2.951,3.868c-0.209,0.081-0.433,0.138-0.67,0.191
	c-0.447,0.109-0.917,0.166-1.411,0.166c-0.741,0-1.436-0.109-2.082-0.386c-0.646-0.22-1.211-0.582-1.695-1.031
	c-0.485-0.447-0.868-0.943-1.148-1.545c-0.28-0.605-0.42-1.264-0.42-1.975c0-0.716,0.14-1.39,0.42-2.016
	c0.28-0.617,0.663-1.113,1.148-1.552c0.484-0.438,1.049-0.819,1.695-1.04c0.646-0.276,1.341-0.386,2.082-0.386
	c0.475,0,0.942,0.057,1.404,0.166c0.461,0.11,0.896,0.272,1.304,0.439c0.409,0.219,0.781,0.438,1.119,0.735
	c0.337,0.305,0.625,0.61,0.862,0.963h-0.499c-0.513-0.625-1.126-1.098-1.839-1.427s-1.496-0.499-2.352-0.499
	c-0.685,0-1.325,0.117-1.925,0.337s-1.121,0.549-1.568,0.987c-0.446,0.382-0.798,0.878-1.055,1.426
	c-0.257,0.563-0.385,1.197-0.385,1.865c0,0.658,0.128,1.26,0.385,1.809s0.608,1.044,1.055,1.482
	c0.447,0.382,0.969,0.711,1.568,0.931c0.6,0.229,1.24,0.357,1.925,0.357c0.313,0,0.62-0.028,0.92-0.081
	c0.299-0.057,0.581-0.109,0.848-0.208l2.48-3.225h-5.389v-0.354H189.48z"/>
<path style="fill:#FFFFFF;" d="M198.496,213.491h-0.441l2.894,3.735h-0.556l-3.137-4.092h0.671c0.246,0,0.478-0.022,0.691-0.025
	c0.213,0,0.413-0.055,0.598-0.07c0.186-0.039,0.366-0.104,0.542-0.206c0.176-0.075,0.354-0.179,0.535-0.329
	c0.332-0.329,0.567-0.658,0.705-1.005c0.138-0.364,0.207-0.722,0.207-1.132c0-0.438-0.109-0.85-0.328-1.264
	c-0.219-0.439-0.532-0.768-0.94-1.04c-0.333-0.167-0.706-0.295-1.119-0.329c-0.413-0.058-0.935-0.058-1.562-0.058h-2.024v9.55
	h-0.428v-9.916h2.452c0.409,0,0.763,0.033,1.062,0.037c0.3,0,0.558,0.058,0.777,0.06c0.218,0.051,0.406,0.107,0.562,0.16
	c0.157,0.057,0.302,0.109,0.435,0.167c0.209,0.109,0.409,0.243,0.6,0.438c0.189,0.163,0.354,0.382,0.491,0.602
	c0.137,0.22,0.247,0.495,0.328,0.768c0.08,0.276,0.121,0.549,0.121,0.825v0.053c0,0.329-0.058,0.658-0.171,0.987
	c-0.114,0.373-0.298,0.685-0.549,0.987c-0.252,0.292-0.575,0.549-0.97,0.768C199.549,213.382,199.066,213.489,198.496,213.491"/>
<path style="fill:#FFFFFF;" d="M209.155,207.295h0.869l7.584,9.955h-0.527l-2.58-3.373h-4.918v3.373h-0.428V207.295z
	 M209.583,207.677v5.867h4.647l-4.463-5.867H209.583z"/>
<polygon style="fill:#FFFFFF;" points="224.083,207.677 224.083,212.065 226.948,212.065 226.948,212.451 224.083,212.451 
	224.083,216.893 224.083,217.227 223.655,217.227 223.655,207.311 229.514,207.311 229.514,207.677 "/>
<rect x="235.543" y="207.295" style="fill:#FFFFFF;" width="0.428" height="9.955"/>
<path style="fill:#FFFFFF;" d="M242.786,207.295h0.87l7.584,9.955h-0.527l-2.58-3.373h-4.919v3.373h-0.428V207.295z
	 M243.214,207.677v5.867h4.647l-4.462-5.867H243.214z"/>
</svg>
